<svg width="34" height="24" viewBox="0 0 34 24" fill="none" xmlns="http://www.w3.org/2000/svg">
<path d="M0 20.349C0 19.5028 0.218398 18.7476 0.655195 18.0834C1.09199 17.4191 1.67534 16.9024 2.40526 16.5332C3.96579 15.7699 5.53495 15.1814 7.11272 14.7676C8.69077 14.354 10.425 14.1473 12.3153 14.1473C14.2059 14.1473 15.9401 14.354 17.5178 14.7676C19.0959 15.1814 20.6652 15.7699 22.2257 16.5332C22.9556 16.9024 23.539 17.4191 23.9758 18.0834C24.4126 18.7476 24.631 19.5028 24.631 20.349V21.5051C24.631 22.166 24.3884 22.747 23.9031 23.2481C23.4179 23.7493 22.8289 23.9998 22.1362 23.9998H2.49434C1.80192 23.9998 1.2131 23.7572 0.727858 23.272C0.242619 22.7864 0 22.1975 0 21.5051V20.349ZM27.2805 23.9998C27.4869 23.623 27.6442 23.2219 27.7526 22.7966C27.861 22.3713 27.9152 21.9408 27.9152 21.5051V20.1471C27.9152 19.0693 27.6513 18.042 27.1237 17.0653C26.5957 16.0888 25.8469 15.2509 24.8773 14.5516C25.9783 14.7158 27.0236 14.97 28.0133 15.314C29.0026 15.6583 29.9468 16.0651 30.8459 16.5345C31.6943 16.9871 32.3495 17.5207 32.8115 18.1351C33.2734 18.7492 33.5044 19.4199 33.5044 20.1471V21.5051C33.5044 22.1975 33.2618 22.7864 32.7766 23.272C32.2913 23.7572 31.7025 23.9998 31.0101 23.9998H27.2805ZM12.3153 11.4945C10.7348 11.4945 9.38182 10.9318 8.25644 9.80639C7.13106 8.68074 6.56837 7.32765 6.56837 5.74714C6.56837 4.16663 7.13106 2.81368 8.25644 1.6883C9.38182 0.562644 10.7348 -0.000183105 12.3153 -0.000183105C13.8958 -0.000183105 15.2489 0.562644 16.3745 1.6883C17.4999 2.81368 18.0626 4.16663 18.0626 5.74714C18.0626 7.32765 17.4999 8.68074 16.3745 9.80639C15.2489 10.9318 13.8958 11.4945 12.3153 11.4945ZM26.4939 5.74714C26.4939 7.32765 25.9312 8.68074 24.8059 9.80639C23.6805 10.9318 22.3275 11.4945 20.747 11.4945C20.5617 11.4945 20.326 11.4734 20.0397 11.4312C19.7531 11.3891 19.5174 11.3428 19.3324 11.2925C19.9799 10.5139 20.4776 9.65012 20.8254 8.70126C21.173 7.75241 21.3468 6.76715 21.3468 5.7455C21.3468 4.72357 21.1694 3.74201 20.8148 2.80081C20.4601 1.8599 19.9659 0.993693 19.3324 0.202204C19.568 0.11791 19.8038 0.063174 20.0397 0.0379952C20.2753 0.0125428 20.5111 -0.000183105 20.747 -0.000183105C22.3275 -0.000183105 23.6805 0.562644 24.8059 1.6883C25.9312 2.81368 26.4939 4.16663 26.4939 5.74714Z" fill="#C63F36"/>
</svg>
