<svg width="48" height="48" viewBox="0 0 48 48" fill="none" xmlns="http://www.w3.org/2000/svg">
<path d="M23.9722 38.1859C24.6935 38.1859 25.3027 37.9371 25.8 37.4394C26.2973 36.9413 26.5459 36.3314 26.5459 35.6097C26.5459 34.8884 26.2968 34.2792 25.7987 33.7819C25.3006 33.2851 24.6909 33.0366 23.9697 33.0366C23.2484 33.0366 22.6392 33.2857 22.1419 33.7838C21.6446 34.2819 21.396 34.8916 21.396 35.6128C21.396 36.3341 21.6451 36.9434 22.1432 37.4406C22.6413 37.9375 23.2509 38.1859 23.9722 38.1859ZM22.1829 29.1398H25.7394C25.7718 27.8964 25.9539 26.9029 26.2857 26.1594C26.6179 25.4162 27.4236 24.4309 28.7027 23.2036C29.8139 22.0924 30.6648 21.0663 31.2556 20.1253C31.8467 19.1846 32.1423 18.0737 32.1423 16.7924C32.1423 14.6177 31.3611 12.9189 29.7985 11.6962C28.2356 10.4739 26.3869 9.86273 24.2526 9.86273C22.144 9.86273 20.3992 10.4255 19.0181 11.5509C17.6366 12.6764 16.6512 14.0019 16.0617 15.5274L19.3067 16.8291C19.6145 15.9903 20.1408 15.1733 20.8857 14.3779C21.6305 13.5829 22.7366 13.1855 24.204 13.1855C25.6971 13.1855 26.8006 13.5943 27.5147 14.412C28.2293 15.2301 28.5865 16.1297 28.5865 17.1107C28.5865 17.9693 28.3419 18.7547 27.8526 19.4672C27.3638 20.1796 26.7404 20.8678 25.9825 21.5318C24.324 23.0282 23.2762 24.2219 22.8392 25.1128C22.4017 26.0034 22.1829 27.3457 22.1829 29.1398ZM24.0044 48C20.6848 48 17.5646 47.3701 14.6438 46.1103C11.7229 44.8505 9.18231 43.1408 7.02189 40.9813C4.86147 38.8217 3.15095 36.2821 1.89032 33.3625C0.630105 30.4429 0 27.3236 0 24.0044C0 20.6848 0.629895 17.5646 1.88968 14.6438C3.14947 11.7229 4.85916 9.18231 7.01874 7.02189C9.17832 4.86147 11.7179 3.15095 14.6375 1.89032C17.5571 0.630105 20.6764 0 23.9956 0C27.3152 0 30.4354 0.629894 33.3562 1.88968C36.2771 3.14947 38.8177 4.85916 40.9781 7.01874C43.1385 9.17832 44.8491 11.7179 46.1097 14.6375C47.3699 17.5571 48 20.6764 48 23.9956C48 27.3152 47.3701 30.4354 46.1103 33.3562C44.8505 36.2771 43.1408 38.8177 40.9813 40.9781C38.8217 43.1385 36.2821 44.8491 33.3625 46.1097C30.4429 47.3699 27.3236 48 24.0044 48Z" fill="#2CA546"/>
</svg>
