<svg width="17" height="24" viewBox="0 0 17 24" fill="none" xmlns="http://www.w3.org/2000/svg">
<path d="M8.21053 24C6.07621 24 4.33211 23.6939 2.97821 23.0817C1.62432 22.4697 0.947369 21.6786 0.947369 20.7085C0.947369 20.3247 1.07737 19.9644 1.33737 19.6276C1.59716 19.2907 1.96674 18.9871 2.44611 18.7165C2.668 18.5708 2.91011 18.5211 3.17242 18.5672C3.43474 18.6133 3.63884 18.7473 3.78474 18.9692C3.93042 19.1911 3.97495 19.4312 3.91832 19.6895C3.86168 19.9478 3.72242 20.1498 3.50053 20.2955C3.36284 20.3441 3.23126 20.4048 3.10579 20.4777C2.98011 20.5505 2.90516 20.6234 2.88095 20.6962C3.08979 21.0737 3.71126 21.4028 4.74537 21.6837C5.77926 21.9647 6.93432 22.1053 8.21053 22.1053C9.48674 22.1053 10.6418 21.9647 11.6757 21.6837C12.7098 21.4028 13.3313 21.0737 13.5401 20.6962C13.5159 20.6234 13.4409 20.5505 13.3153 20.4777C13.1898 20.4048 13.0582 20.3441 12.9205 20.2955C12.6986 20.1498 12.5594 19.9478 12.5027 19.6895C12.4461 19.4312 12.4906 19.1911 12.6363 18.9692C12.7822 18.7473 12.9863 18.6133 13.2486 18.5672C13.5109 18.5211 13.7531 18.5708 13.9749 18.7165C14.4543 18.9871 14.8239 19.2907 15.0837 19.6276C15.3437 19.9644 15.4737 20.3247 15.4737 20.7085C15.4737 21.6786 14.7967 22.4697 13.4428 23.0817C12.0889 23.6939 10.3448 24 8.21053 24ZM8.21053 19.6592C7.98211 19.6592 7.75379 19.6191 7.52558 19.5388C7.29716 19.4586 7.08579 19.3424 6.89147 19.1902C4.57737 17.3247 2.85032 15.5045 1.71032 13.7296C0.570105 11.9546 0 10.2105 0 8.49726C0 7.09158 0.248211 5.86 0.744632 4.80253C1.24105 3.74505 1.88189 2.85958 2.66716 2.14611C3.45263 1.43284 4.33326 0.896841 5.30905 0.538105C6.28463 0.179368 7.25179 0 8.21053 0C9.16926 0 10.1364 0.179368 11.112 0.538105C12.0878 0.896841 12.9684 1.43284 13.7539 2.14611C14.5392 2.85958 15.18 3.74505 15.6764 4.80253C16.1728 5.86 16.4211 7.09158 16.4211 8.49726C16.4211 10.2105 15.851 11.9546 14.7107 13.7296C13.5707 15.5045 11.8437 17.3247 9.52958 19.1902C9.33526 19.3424 9.1239 19.4586 8.89547 19.5388C8.66726 19.6191 8.43895 19.6592 8.21053 19.6592ZM8.21053 10.6033C8.84042 10.6033 9.37842 10.3822 9.82453 9.94011C10.2708 9.498 10.494 8.9579 10.494 8.31979C10.494 7.6899 10.2708 7.15189 9.82453 6.70579C9.37842 6.25947 8.84042 6.03632 8.21053 6.03632C7.58863 6.03632 7.05263 6.25947 6.60253 6.70579C6.15221 7.15189 5.92705 7.6899 5.92705 8.31979C5.92705 8.9579 6.15221 9.498 6.60253 9.94011C7.05263 10.3822 7.58863 10.6033 8.21053 10.6033Z" fill="#C63F36"/>
</svg>
