<svg width="74" height="60" viewBox="0 0 74 60" fill="none" xmlns="http://www.w3.org/2000/svg">
<ellipse cx="34.9375" cy="12.6043" rx="8" ry="7.79487" fill="#2CA546"/>
<path d="M44.8257 23.7904C52.8658 8.52805 43.3406 2.23749 36.8477 1H24V23.7904M44.8257 23.7904H35.3971M44.8257 23.7904H48.3484V35.6497H35.3971M24 23.7904V35.6497H35.3971M24 23.7904H35.3971M35.3971 23.7904V35.6497M35.2377 1.93648V23.4755" stroke="white" stroke-width="2" stroke-linejoin="round"/>
<path d="M0 59.2892V42.9434H5.82638C7.09275 42.9434 8.14363 43.1615 8.97901 43.5978C9.81971 44.0342 10.4476 44.6381 10.8626 45.4096C11.2776 46.1758 11.4851 47.0618 11.4851 48.0674C11.4851 49.0677 11.275 49.9483 10.8546 50.7092C10.4396 51.4648 9.81173 52.0527 8.97103 52.4731C8.13565 52.8934 7.08477 53.1036 5.8184 53.1036H1.40472V50.9806H5.59492C6.39305 50.9806 7.0422 50.8662 7.54237 50.6374C8.04785 50.4086 8.41765 50.076 8.65177 49.6397C8.88589 49.2034 9.00295 48.6793 9.00295 48.0674C9.00295 47.4502 8.88323 46.9154 8.64379 46.4632C8.40967 46.0109 8.03987 45.665 7.53438 45.4256C7.03422 45.1808 6.37709 45.0584 5.56299 45.0584H2.46623V59.2892H0ZM8.06913 51.9144L12.1077 59.2892H9.29826L5.33952 51.9144H8.06913Z" fill="white"/>
<path d="M19.4246 59.5366C18.2167 59.5366 17.1765 59.2785 16.3039 58.7624C15.4366 58.2409 14.7661 57.5093 14.2926 56.5675C13.8243 55.6204 13.5902 54.511 13.5902 53.2393C13.5902 51.9836 13.8243 50.8768 14.2926 49.9191C14.7661 48.9613 15.4259 48.2137 16.272 47.6763C17.1233 47.1389 18.1183 46.8702 19.257 46.8702C19.9487 46.8702 20.6191 46.9846 21.2683 47.2134C21.9174 47.4422 22.5001 47.8014 23.0162 48.2909C23.5323 48.7804 23.9394 49.4162 24.2373 50.1984C24.5353 50.9753 24.6843 51.9197 24.6843 53.0318V53.8778H14.9391V52.09H22.3458C22.3458 51.4621 22.2181 50.9061 21.9627 50.4219C21.7072 49.9324 21.3481 49.5466 20.8852 49.2646C20.4276 48.9826 19.8902 48.8416 19.2729 48.8416C18.6025 48.8416 18.0172 49.0065 17.517 49.3364C17.0222 49.661 16.6391 50.0867 16.3677 50.6134C16.1017 51.1349 15.9687 51.7016 15.9687 52.3135V53.7102C15.9687 54.5296 16.1123 55.2267 16.3997 55.8013C16.6923 56.376 17.0994 56.8149 17.6208 57.1182C18.1423 57.4162 18.7515 57.5652 19.4485 57.5652C19.9008 57.5652 20.3132 57.5013 20.6856 57.3736C21.0581 57.2406 21.38 57.0437 21.6514 56.783C21.9227 56.5223 22.1303 56.2004 22.2739 55.8173L24.5326 56.2243C24.3517 56.8894 24.0272 57.4721 23.5589 57.9722C23.096 58.4671 22.5134 58.8528 21.811 59.1295C21.114 59.4009 20.3185 59.5366 19.4246 59.5366Z" fill="white"/>
<path d="M29.7185 52.0102V59.2892H27.3321V47.0298H29.6227V49.0252H29.7744C30.0564 48.376 30.498 47.8546 31.0993 47.4608C31.7059 47.0671 32.4694 46.8702 33.3899 46.8702C34.2253 46.8702 34.9569 47.0458 35.5848 47.397C36.2127 47.7428 36.6995 48.259 37.0454 48.9453C37.3912 49.6317 37.5642 50.4804 37.5642 51.4914V59.2892H35.1777V51.7787C35.1777 50.8901 34.9463 50.1958 34.4834 49.6956C34.0205 49.1901 33.3846 48.9374 32.5758 48.9374C32.0225 48.9374 31.5303 49.0571 31.0993 49.2965C30.6736 49.536 30.3357 49.8871 30.0857 50.3501C29.8409 50.8077 29.7185 51.361 29.7185 52.0102Z" fill="white"/>
<path d="M46.4873 47.0298V48.9453H39.791V47.0298H46.4873ZM41.5868 44.0927H43.9732V55.6896C43.9732 56.1525 44.0424 56.501 44.1807 56.7351C44.319 56.9639 44.4973 57.1209 44.7155 57.206C44.9389 57.2858 45.181 57.3258 45.4418 57.3258C45.6333 57.3258 45.8009 57.3125 45.9446 57.2858C46.0882 57.2592 46.2 57.238 46.2798 57.222L46.7108 59.1934C46.5724 59.2466 46.3756 59.2998 46.1202 59.353C45.8648 59.4115 45.5455 59.4435 45.1624 59.4488C44.5345 59.4594 43.9492 59.3477 43.4065 59.1136C42.8638 58.8795 42.4248 58.5176 42.0896 58.0281C41.7544 57.5386 41.5868 56.924 41.5868 56.1844V44.0927Z" fill="white"/>
<path d="M54.8498 47.0298V48.9453H48.1534V47.0298H54.8498ZM49.9492 44.0927H52.3356V55.6896C52.3356 56.1525 52.4048 56.501 52.5431 56.7351C52.6815 56.9639 52.8597 57.1209 53.0779 57.206C53.3014 57.2858 53.5435 57.3258 53.8042 57.3258C53.9958 57.3258 54.1634 57.3125 54.307 57.2858C54.4507 57.2592 54.5624 57.238 54.6422 57.222L55.0732 59.1934C54.9349 59.2466 54.738 59.2998 54.4826 59.353C54.2272 59.4115 53.908 59.4435 53.5249 59.4488C52.897 59.4594 52.3117 59.3477 51.769 59.1136C51.2262 58.8795 50.7873 58.5176 50.452 58.0281C50.1168 57.5386 49.9492 56.924 49.9492 56.1844V44.0927Z" fill="white"/>
<path d="M57.4896 59.2892V47.0298H59.876V59.2892H57.4896ZM58.6948 45.1382C58.2797 45.1382 57.9232 44.9999 57.6253 44.7232C57.3326 44.4412 57.1863 44.106 57.1863 43.7176C57.1863 43.3238 57.3326 42.9886 57.6253 42.7119C57.9232 42.4299 58.2797 42.2889 58.6948 42.2889C59.1098 42.2889 59.4636 42.4299 59.7563 42.7119C60.0543 42.9886 60.2032 43.3238 60.2032 43.7176C60.2032 44.106 60.0543 44.4412 59.7563 44.7232C59.4636 44.9999 59.1098 45.1382 58.6948 45.1382Z" fill="white"/>
<path d="M64.9701 47.0298L67.6758 51.8027L70.4054 47.0298H73.0153L69.1922 53.1595L73.0472 59.2892H70.4373L67.6758 54.7079L64.9222 59.2892H62.3043L66.1194 53.1595L62.3522 47.0298H64.9701Z" fill="white"/>
</svg>
