<svg width="44" height="25" viewBox="0 0 44 25" fill="none" xmlns="http://www.w3.org/2000/svg">
<path d="M23.802 10.3147H21.2245V10.3143H12.0009V14.6847H19.3104C18.3681 17.8295 15.4482 20.1294 12.0015 20.1294C7.79407 20.1294 4.37063 16.7057 4.37063 12.4999C4.37063 8.29264 7.79428 4.87042 12.0015 4.87042C14.6136 4.87042 16.9226 6.19024 18.2979 8.1978H23.2031C21.4711 3.69909 17.1033 0.5 12.0015 0.5C5.38451 0.5 0 5.88308 0 12.4999C0 19.1169 5.38451 24.5 12.0015 24.5C18.6186 24.5 24.0014 19.1169 24.0014 12.4999C24.0016 11.7542 23.9331 11.0228 23.802 10.3147Z" fill="#2CA546"/>
<path d="M31.7565 0.500183C28.4495 0.500183 25.4485 1.84631 23.2763 4.01683C24.0601 5.05702 24.6995 6.20653 25.1745 7.43906L25.4644 8.18921C26.8411 6.18614 29.1472 4.87061 31.7565 4.87061C35.9623 4.87061 39.386 8.29262 39.386 12.5001C39.386 16.7059 35.9623 20.1296 31.7565 20.1296C29.137 20.1296 26.8221 18.8038 25.4485 16.7875C24.9604 18.3143 24.2204 19.7274 23.2734 20.9803C25.447 23.1539 28.4481 24.5 31.7567 24.5C38.3737 24.5 43.7566 19.1169 43.7566 12.4999C43.7564 5.88306 38.3735 0.500183 31.7565 0.500183Z" fill="#2CA546"/>
</svg>
