<svg width="24" height="24" viewBox="0 0 24 24" fill="none" xmlns="http://www.w3.org/2000/svg">
<path d="M18.9474 20.298V22.6105C18.9474 22.8794 18.8566 23.1044 18.6752 23.2857C18.4939 23.4672 18.2688 23.5579 18 23.5579C17.7312 23.5579 17.5061 23.4672 17.3248 23.2857C17.1434 23.1044 17.0526 22.8794 17.0526 22.6105V18.5829C17.0526 18.1539 17.2004 17.7916 17.496 17.496C17.7916 17.2004 18.1539 17.0526 18.5829 17.0526H22.6105C22.8794 17.0526 23.1044 17.1434 23.2857 17.3248C23.4672 17.5061 23.5579 17.7312 23.5579 18C23.5579 18.2688 23.4672 18.4939 23.2857 18.6752C23.1044 18.8566 22.8794 18.9474 22.6105 18.9474H20.2664L23.6552 22.3361C23.8299 22.5108 23.9173 22.7274 23.9173 22.9857C23.9173 23.244 23.8299 23.4672 23.6552 23.6552C23.4672 23.8509 23.242 23.9468 22.9797 23.9428C22.7174 23.9388 22.4923 23.8429 22.3045 23.6552L18.9474 20.298ZM12 24C10.3417 24 8.78263 23.6846 7.32284 23.0539C5.86284 22.4232 4.59274 21.5677 3.51253 20.4875C2.43232 19.4073 1.57684 18.1372 0.946105 16.6772C0.315369 15.2174 0 13.6583 0 12C0 10.3417 0.315369 8.78263 0.946105 7.32284C1.57684 5.86284 2.43232 4.59274 3.51253 3.51253C4.59274 2.43232 5.86284 1.57684 7.32284 0.946106C8.78263 0.315369 10.3417 0 12 0C13.6583 0 15.2174 0.315369 16.6772 0.946106C18.1372 1.57684 19.4073 2.43232 20.4875 3.51253C21.5677 4.59274 22.4232 5.86284 23.0539 7.32284C23.6846 8.78263 24 10.3417 24 12C24 12.2185 23.9947 12.4541 23.9842 12.7067C23.9737 12.9594 23.9538 13.1951 23.9245 13.4138C23.8906 13.6826 23.7777 13.8947 23.5857 14.0501C23.3939 14.2057 23.1571 14.2835 22.8752 14.2835C22.6274 14.2835 22.4161 14.1765 22.2414 13.9626C22.0664 13.7489 21.996 13.5142 22.0301 13.2584C22.0722 13.0397 22.0953 12.8299 22.0993 12.6291C22.1033 12.4282 22.1053 12.2185 22.1053 12C22.1053 11.5385 22.0749 11.0791 22.0143 10.6216C21.9535 10.1639 21.8583 9.70842 21.7288 9.25516H17.0331C17.1124 9.70842 17.17 10.1639 17.2058 10.6216C17.2414 11.0791 17.2592 11.5385 17.2592 12C17.2592 12.2185 17.2572 12.4509 17.2532 12.6973C17.2489 12.9434 17.2363 13.1757 17.2153 13.3942C17.1814 13.6631 17.0704 13.8784 16.8824 14.0403C16.6946 14.2024 16.4663 14.2835 16.1975 14.2835C15.9497 14.2835 15.7332 14.1831 15.5479 13.9822C15.3624 13.7814 15.2866 13.5531 15.3205 13.2973C15.3416 13.0785 15.3542 12.8623 15.3584 12.6486C15.3624 12.4347 15.3644 12.2185 15.3644 12C15.3644 11.5385 15.3466 11.0791 15.3111 10.6216C15.2753 10.1639 15.2178 9.70842 15.1386 9.25516H8.86137C8.78221 9.70842 8.72474 10.1639 8.68895 10.6216C8.65337 11.0791 8.63558 11.5385 8.63558 12C8.63558 12.4615 8.65337 12.9209 8.68895 13.3784C8.72474 13.8361 8.78221 14.2916 8.86137 14.7448H12.5586C12.8275 14.7448 13.0526 14.8356 13.2341 15.0171C13.4154 15.1983 13.506 15.4234 13.506 15.6922C13.506 15.9611 13.4154 16.1862 13.2341 16.3677C13.0526 16.5489 12.8275 16.6396 12.5586 16.6396H9.29621C9.57326 17.6339 9.934 18.5874 10.3784 19.5C10.8231 20.4126 11.3636 21.2721 12 22.0784C12.2267 22.0784 12.4535 22.0797 12.6802 22.0822C12.9069 22.0845 13.1296 22.0712 13.3481 22.0421C13.6089 22.008 13.8267 22.0752 14.0015 22.2436C14.1764 22.412 14.2639 22.6266 14.2639 22.8875C14.2639 23.1692 14.1915 23.404 14.0466 23.592C13.9016 23.7798 13.6946 23.8906 13.4258 23.9245C13.2073 23.9538 12.9717 23.9737 12.7191 23.9842C12.4664 23.9947 12.2267 24 12 24ZM2.27116 14.7448H6.96695C6.88758 14.2916 6.83 13.8361 6.79421 13.3784C6.75863 12.9209 6.74084 12.4615 6.74084 12C6.74084 11.5385 6.75863 11.0791 6.79421 10.6216C6.83 10.1639 6.88758 9.70842 6.96695 9.25516H2.27116C2.14168 9.70842 2.04653 10.1639 1.98568 10.6216C1.92505 11.0791 1.89474 11.5385 1.89474 12C1.89474 12.4615 1.92505 12.9209 1.98568 13.3784C2.04653 13.8361 2.14168 14.2916 2.27116 14.7448ZM9.55389 21.7554C9.04547 20.9667 8.60863 20.1441 8.24337 19.2875C7.87811 18.4308 7.58053 17.5482 7.35063 16.6396H3.06568C3.72463 17.94 4.61853 19.0372 5.74737 19.9311C6.87621 20.8252 8.14505 21.4333 9.55389 21.7554ZM3.06568 7.36042H7.35063C7.56431 6.44379 7.85179 5.55716 8.21305 4.70053C8.5741 3.84368 9.02105 3.02505 9.55389 2.24463C8.13684 2.55874 6.866 3.16274 5.74137 4.05663C4.61653 4.95053 3.72463 6.05179 3.06568 7.36042ZM9.29621 7.36042H14.7038C14.4349 6.36611 14.0721 5.41674 13.6153 4.51232C13.1586 3.60768 12.6202 2.7441 12 1.92158C11.3716 2.72789 10.8311 3.58737 10.3784 4.5C9.92579 5.41263 9.56505 6.36611 9.29621 7.36042ZM16.6494 7.36042H20.9343C20.2754 6.05179 19.3835 4.94853 18.2586 4.05063C17.134 3.15253 15.8632 2.55053 14.4461 2.24463C14.9545 3.03326 15.3853 3.85789 15.7383 4.71853C16.0914 5.57937 16.3951 6.46 16.6494 7.36042Z" fill="#C63F36"/>
</svg>
